<svg xmlns="http://www.w3.org/2000/svg" xmlns:xlink="http://www.w3.org/1999/xlink" width="500" zoomAndPan="magnify" viewBox="0 0 375 374.999991" height="500" preserveAspectRatio="xMidYMid meet" version="1.0"><path fill="#1c3249" d="M 375 187.5 L 264.371094 195.109375 L 371.488281 223.984375 L 261.445312 209.9375 L 360.757812 259.300781 L 255.59375 223.789062 L 343.390625 291.6875 L 247.203125 236.472656 L 320.175781 320.175781 L 236.472656 247.203125 L 291.6875 343.390625 L 223.789062 255.59375 L 259.300781 360.757812 L 209.9375 261.445312 L 223.984375 371.488281 L 195.109375 264.371094 L 187.5 375 L 179.890625 264.371094 L 151.015625 371.488281 L 165.0625 261.445312 L 115.699219 360.757812 L 151.210938 255.59375 L 83.3125 343.390625 L 138.527344 247.203125 L 54.824219 320.175781 L 127.796875 236.472656 L 31.609375 291.6875 L 119.40625 223.789062 L 14.242188 259.300781 L 113.554688 209.9375 L 3.511719 223.984375 L 110.625 195.109375 L 0 187.5 L 110.625 179.890625 L 3.511719 151.015625 L 113.554688 165.0625 L 14.242188 115.699219 L 119.40625 151.210938 L 31.609375 83.3125 L 127.796875 138.527344 L 54.824219 54.824219 L 138.527344 127.796875 L 83.3125 31.609375 L 151.210938 119.40625 L 115.699219 14.242188 L 165.0625 113.554688 L 151.015625 3.511719 L 179.890625 110.625 L 187.5 0 L 195.109375 110.625 L 223.984375 3.511719 L 209.9375 113.554688 L 259.300781 14.242188 L 223.789062 119.40625 L 291.6875 31.609375 L 236.472656 127.796875 L 320.175781 54.824219 L 247.203125 138.527344 L 343.390625 83.3125 L 255.59375 151.210938 L 360.757812 115.699219 L 261.445312 165.0625 L 371.488281 151.015625 L 264.371094 179.890625 Z M 375 187.5 " fill-opacity="1" fill-rule="nonzero"/></svg>